<?xml version="1.0" encoding="UTF-8"?>
<svg id="Layer_2" data-name="Layer 2" xmlns="http://www.w3.org/2000/svg" viewBox="0 0 1000 1052.84">
  <defs>
    <style>
      .cls-1 {
        fill: #ffcd00;
      }

      .cls-1, .cls-2 {
        stroke-width: 0px;
      }

      .cls-2 {
        fill: #2e2e38;
      }
    </style>
  </defs>
  <g id="Layer_3" data-name="Layer 3">
    <path class="cls-2" d="M778.65,1014.11c0,2.35-.15,5.33-.32,6.43h-44.77c.78,10.34,7.83,14.58,15.82,14.58,4.69,0,9.08-1.41,12.83-5.18l13.15,11.13c-6.89,8.62-17.37,11.76-26.76,11.76-21.61,0-33.97-16.62-33.97-38.41,0-23.67,14.56-38.72,32.72-38.72,19.41,0,31.3,17.09,31.3,38.41h0ZM733.87,1006.12h26.3c-.63-8.31-5.95-13.95-13.46-13.95-8.93,0-12.36,7.84-12.83,13.95ZM1000,1014.11c0,2.35-.15,5.33-.32,6.43h-44.77c.78,10.34,7.83,14.58,15.82,14.58,4.69,0,9.08-1.41,12.83-5.18l13.15,11.13c-6.89,8.62-17.37,11.76-26.76,11.76-21.61,0-33.97-16.62-33.97-38.41,0-23.67,14.56-38.72,32.72-38.72,19.41,0,31.3,17.09,31.3,38.41h0ZM955.23,1006.12h26.3c-.63-8.31-5.95-13.95-13.46-13.95-8.93,0-12.36,7.84-12.83,13.95ZM917.97,1024.93l12.21,11.6c-6.26,7.99-14.87,16.31-29.43,16.31-20.19,0-35.07-16.14-35.07-38.41,0-20.38,12.36-38.72,35.37-38.72,13.15,0,22.23,5.96,28.96,15.99l-12.53,12.7c-4.39-5.8-9.08-10.34-16.6-10.34-10.18,0-15.5,8.62-15.5,20.07,0,10.66,4.69,20.22,15.65,20.22,6.73,0,12.36-3.61,16.9-9.41h.02ZM747.65,902.03h-18.16v-5.18c-4.07,4.55-10.65,6.74-17.22,6.74-19.1,0-26.3-13.8-26.3-33.7v-41.86h18.47v40.29c0,10.03,2.04,17.56,12.36,17.56s12.36-7.84,12.36-16.93v-40.92h18.47v73.99h0ZM805.26,880.39l-2.66,18.81c-3.75,2.98-10.65,4.39-15.18,4.39-11.28,0-20.04-8.47-20.04-21.95v-35.9h-10.65v-17.71h10.65v-19.28l18.47-9.41v28.69h17.54v17.71h-17.54v31.04c0,6.43,2.66,8.77,7.21,8.77s9.24-2.35,12.21-5.18h-.01ZM524.74,902.03h-18.47v-40.29c0-10.03-2.19-17.4-12.53-17.4s-12.68,6.74-12.68,16.93v40.75h-18.47v-93.27l18.47-9.41v33.87c4.07-4.08,9.08-6.74,17.37-6.74,19.57,0,26.3,15.05,26.3,33.87v41.7-.02ZM854.42,1051.27h-19.1v-40.29c0-10.34-2.35-17.24-12.68-17.24-9.71,0-12.83,5.8-12.83,16.78v40.75h-19.1v-73.99h19.1v5.01c3.92-3.92,9.71-6.58,18-6.58,20.04,0,26.61,15.52,26.61,33.7v41.86h0ZM615.52,970.85c6.11,0,10.96-4.86,10.96-10.98s-4.85-10.98-10.96-10.98-10.96,4.86-10.96,10.98,4.85,10.98,10.96,10.98ZM127.43,970.85c6.11,0,10.96-4.86,10.96-10.98s-4.85-10.98-10.96-10.98-10.96,4.86-10.96,10.98,4.85,10.98,10.96,10.98ZM1000,864.87c0,2.35-.15,5.33-.32,6.43h-44.77c.78,10.34,7.83,14.58,15.82,14.58,4.69,0,9.08-1.41,12.83-5.18l13.15,11.13c-6.89,8.62-17.37,11.76-26.76,11.76-21.61,0-33.97-16.62-33.97-38.41,0-23.67,14.56-38.72,32.72-38.72,19.41,0,31.3,17.09,31.3,38.41h0ZM955.23,856.88h26.3c-.63-8.31-5.95-13.95-13.46-13.95-8.93,0-12.36,7.84-12.83,13.95ZM875.55,902.03h-18.16v-5.18c-4.07,4.55-10.65,6.74-17.22,6.74-19.1,0-26.3-13.8-26.3-33.7v-41.86h18.47v40.29c0,10.03,2.04,17.56,12.36,17.56s12.36-7.84,12.36-16.93v-40.92h18.47v73.99h0ZM598.15,864.87c0,2.35-.15,5.33-.32,6.43h-44.77c.78,10.34,7.83,14.58,15.82,14.58,4.69,0,9.08-1.41,12.83-5.18l13.15,11.13c-6.89,8.62-17.37,11.76-26.76,11.76-21.61,0-33.97-16.62-33.97-38.41,0-23.67,14.56-38.72,32.72-38.72,19.41,0,31.3,17.09,31.3,38.41h0ZM553.38,856.88h26.3c-.63-8.31-5.95-13.95-13.46-13.95-8.93,0-12.36,7.84-12.83,13.95ZM703.19,1051.27h-19.1v-4.86c-6.26,4.55-10.01,6.43-16.75,6.43-21.29,0-30.37-18.5-30.37-39.2,0-22.42,10.65-37.93,29.9-37.93,6.42,0,12.53,1.72,17.22,5.96v-23.67l19.1-9.56v102.84h0ZM684.1,1028.38v-28.22c-4.07-4.39-7.98-6.43-13.3-6.43-11.11,0-13.78,8.77-13.78,19.28,0,11.91,3.44,21.79,14.25,21.79,5.32,0,9.08-2.35,12.83-6.43h0ZM605.83,977.27v73.99h19.1v-73.99h-19.1ZM594.71,950.94v15.36c-2.82-.94-6.57-1.41-9.39-1.41-5.47,0-7.98,1.72-7.98,6.43v5.96h15.82v17.88h-15.82v56.12h-19.1v-56.12h-10.33v-17.88h10.33v-8.94c0-13.8,8.61-19.43,22.54-19.43,4.07,0,10.01.47,13.93,2.04h0ZM538.5,1051.27h-19.1v-40.29c0-10.34-2.35-17.24-12.68-17.24-9.71,0-12.83,5.8-12.83,16.78v40.75h-19.1v-73.99h19.1v5.01c3.92-3.92,9.71-6.58,18-6.58,20.04,0,26.61,15.52,26.61,33.7v41.86h0ZM428.77,975.7c-21.29,0-34.59,16.78-34.59,38.56,0,22.89,14.56,38.56,34.59,38.56s34.59-15.67,34.59-38.56-13.3-38.56-34.59-38.56h0ZM428.77,1034.33c-12.21,0-14.87-11.76-14.87-20.07,0-11.44,4.69-20.22,14.87-20.22s14.87,8.77,14.87,20.22c0,8.31-2.66,20.07-14.87,20.07ZM375.7,1024.93l12.21,11.6c-6.26,7.99-14.87,16.31-29.43,16.31-20.19,0-35.07-16.14-35.07-38.41,0-20.38,12.36-38.72,35.37-38.72,13.15,0,22.23,5.96,28.96,15.99l-12.53,12.7c-4.39-5.8-9.08-10.34-16.6-10.34-10.18,0-15.5,8.62-15.5,20.07,0,10.66,4.69,20.22,15.65,20.22,6.73,0,12.36-3.61,16.9-9.41h.02ZM276.93,1051.27h-19.1v-40.29c0-10.34-2.35-17.24-12.68-17.24-9.71,0-13,5.8-13,16.78v40.75h-19.1v-93.27l19.1-9.56v33.87c3.6-4.39,11.11-6.58,18.47-6.58,19.41,0,26.3,15.36,26.3,33.7v41.86h.01ZM201.31,1029l-2.82,19.28c-3.92,3.14-13.3,4.55-18.32,4.55-11.58,0-19.89-9.25-19.89-22.11v-35.59h-12.83v-17.88h12.83v-19.28l19.1-9.56v28.84h21.61v17.88h-21.61v30.41c0,6.74,2.5,8.94,7.04,8.94s11.58-2.35,14.87-5.48h.01ZM117.87,977.27v73.99h19.1v-73.99h-19.1ZM107.86,977.27l-23.33,73.99h-17.54l-12.53-45-12.68,45h-17.54L1.08,977.27h21.29l11.11,42.96,12.53-42.96h17.37l12.53,42.96,11.28-42.96h20.67ZM681.28,801.86v15.21c-4.22-1.1-7.04-1.57-9.55-1.57-6.57,0-7.98,2.35-7.98,6.11v6.43h12.53v17.88h-12.53v56.12h-18.47v-56.12h-9.08v-17.88h9.08v-8.94c0-12.85,6.73-19.43,22.39-19.43,5.01,0,9.08.94,13.62,2.19h-.01ZM454.13,880.39l-2.66,18.81c-3.76,2.98-10.33,4.39-14.87,4.39-11.28,0-20.04-8.47-20.04-21.95v-35.9h-12.83v-17.71h12.83v-19.28l18.47-9.41v28.69h17.22v17.71h-17.22v31.04c0,6.43,2.66,8.77,7.21,8.77s8.93-2.35,11.9-5.18h-.01ZM368.18,864.87c0,2.35-.15,5.33-.32,6.43h-43.2c.78,10.34,7.98,14.58,15.97,14.58,4.69,0,8.93-1.41,12.68-5.18l13.15,11.13c-6.11,8.15-17.22,11.76-27.08,11.76-21.14,0-33.66-16.62-33.66-38.25s13.62-38.88,32.87-38.88c20.66,0,29.58,18.81,29.58,38.41h0ZM324.98,856.88h26.3c-.78-8.31-5.64-13.95-13.62-13.95-8.46,0-12.21,7.84-12.68,13.95h0ZM296.96,865.19c0,18.97-7.83,38.41-28.8,38.41-8.14,0-13.15-2.98-16.44-6.11v22.57l-18.47,9.25v-101.27h18.47v5.01c4.85-4.39,9.86-6.58,16.75-6.58,19.89,0,28.5,18.81,28.5,38.72h-.01ZM277.86,866.13c0-10.81-2.82-21.79-13.93-21.79-5.17,0-9.24,2.35-12.21,6.58v28.22c2.97,4.23,7.98,6.74,13.3,6.74,10.33,0,12.83-9.41,12.83-19.75h.01ZM220.41,902.03h-18.47v-5.18c-4.39,4.39-10.01,6.74-17.22,6.74-14.56,0-25.98-9.41-25.98-25.71s11.11-24.93,28.8-24.93c4.69,0,9.55.63,14.4,2.98v-3.92c0-6.9-4.54-9.72-12.68-9.72-5.79,0-11.28,1.41-17.07,4.86l-7.36-13.17c7.98-5.01,15.65-7.52,25.51-7.52,18.62,0,30.05,9.09,30.05,25.87v49.72ZM201.94,880.39v-9.41c-3.76-2.35-8.61-3.14-12.36-3.14-8.14,0-12.05,3.61-12.05,9.56s3.6,10.19,10.49,10.19c3.6,0,9.86-1.25,13.93-7.22h-.01ZM148.55,902.03h-18.47v-40.29c0-10.03-2.19-17.4-12.53-17.4s-12.68,6.74-12.68,16.93v40.75h-18.47v-93.27l18.47-9.41v33.87c4.07-4.08,9.08-6.74,17.37-6.74,19.57,0,26.3,15.05,26.3,33.87v41.7-.02ZM76.24,872.4c0,22.26-16.9,31.2-36.94,31.2-14.4,0-30.37-4.55-39.29-17.71l13.78-12.23c6.42,7.68,15.65,11.29,25.05,11.29,11.11,0,17.54-5.01,17.54-12.07,0-2.82-1.1-5.65-5.79-7.99-3.44-1.72-7.67-2.82-15.97-4.86-5.17-1.25-15.82-3.76-22.39-9.09-6.57-5.33-8.46-13.01-8.46-19.75,0-20.85,17.85-29.31,35.37-29.31,15.18,0,26.14,6.27,34.91,15.21l-13.78,13.48c-6.42-6.43-12.68-10.03-22.39-10.03-8.29,0-14.4,2.66-14.4,9.56,0,2.98,1.1,5.01,4.07,6.74,3.44,1.89,8.29,3.29,15.82,5.18,8.93,2.35,17.22,4.39,23.95,9.88,5.95,4.86,8.93,11.29,8.93,20.54v-.02ZM936.76,831.49l-7.53,18.5c-2.82-2.66-6.11-4.55-10.65-4.55-8.76,0-10.94,7.37-10.94,16.31v40.29h-18.47v-73.99h18.47v5.18c4.22-4.23,9.55-6.74,15.5-6.74,5.17,0,9.71,1.57,13.62,5.01h0Z"/>
    <polygon class="cls-2" points="321.07 543.02 442.11 543.02 442.11 472.74 321.07 472.74 321.07 417.5 454.97 417.5 410.55 340.51 220.67 340.51 220.67 675.26 488.45 675.26 488.45 598.27 321.06 598.27 321.06 543.04 321.07 543.02"/>
    <polygon class="cls-2" points="666.68 340.51 609.82 449.75 553.1 340.51 442.1 340.51 559.06 543.02 559.06 675.26 659.15 675.26 659.15 543.02 776.27 340.51 666.7 340.51 666.68 340.51"/>
    <polygon class="cls-1" points="877.1 0 213.95 241.34 877.1 124.54 877.1 0"/>
  </g>
</svg>