<?xml version="1.0" encoding="UTF-8" standalone="no"?>
<!-- Created with Inkscape (http://www.inkscape.org/) -->

<svg
   xmlns:dc="http://purl.org/dc/elements/1.1/"
   xmlns:cc="http://creativecommons.org/ns#"
   xmlns:rdf="http://www.w3.org/1999/02/22-rdf-syntax-ns#"
   xmlns:svg="http://www.w3.org/2000/svg"
   xmlns="http://www.w3.org/2000/svg"
   xmlns:sodipodi="http://sodipodi.sourceforge.net/DTD/sodipodi-0.dtd"
   xmlns:inkscape="http://www.inkscape.org/namespaces/inkscape"
   width="155"
   height="42"
   viewBox="0 0 155 42.000002"
   id="svg4579"
   version="1.1"
   inkscape:version="0.91 r13725"
   sodipodi:docname="FPHcare-logo.svg">
  <defs
     id="defs4581">
    <clipPath
       id="clip1">
      <path
         inkscape:connector-curvature="0"
         d="m 133,730 9,0 0,5.64844 -9,0 z m 0,0"
         id="path61" />
    </clipPath>
    <clipPath
       id="clip2">
      <path
         inkscape:connector-curvature="0"
         d="m 74,730 11,0 0,5.64844 -11,0 z m 0,0"
         id="path64" />
    </clipPath>
    <clipPath
       id="clip3">
      <path
         inkscape:connector-curvature="0"
         d="m 111,730 10,0 0,5.64844 -10,0 z m 0,0"
         id="path67" />
    </clipPath>
    <clipPath
       id="clip4">
      <path
         inkscape:connector-curvature="0"
         d="M 56.351562,730 65,730 l 0,5.64844 -8.648438,0 z m 0,0"
         id="path70" />
    </clipPath>
    <clipPath
       id="clip5">
      <path
         inkscape:connector-curvature="0"
         d="m 92,730 8,0 0,5.64844 -8,0 z m 0,0"
         id="path73" />
    </clipPath>
    <clipPath
       id="clip6">
      <path
         inkscape:connector-curvature="0"
         d="m 86,730 7,0 0,5.64844 -7,0 z m 0,0"
         id="path76" />
    </clipPath>
    <clipPath
       id="clip7">
      <path
         inkscape:connector-curvature="0"
         d="m 121,730 12,0 0,5.64844 -12,0 z m 0,0"
         id="path79" />
    </clipPath>
    <clipPath
       id="clip8">
      <path
         inkscape:connector-curvature="0"
         d="m 67,730 7,0 0,5.64844 -7,0 z m 0,0"
         id="path82" />
    </clipPath>
    <clipPath
       id="clip9">
      <path
         inkscape:connector-curvature="0"
         d="m 101,730 10,0 0,5.64844 -10,0 z m 0,0"
         id="path85" />
    </clipPath>
    <clipPath
       id="clip10">
      <path
         inkscape:connector-curvature="0"
         d="m 128,727 21.42578,0 0,2 L 128,729 Z m 0,0"
         id="path88" />
    </clipPath>
    <clipPath
       id="clip11">
      <path
         inkscape:connector-curvature="0"
         d="M 56.351562,727 126,727 l 0,2 -69.648438,0 z m 0,0"
         id="path91" />
    </clipPath>
    <clipPath
       id="clip12">
      <path
         inkscape:connector-curvature="0"
         d="m 147,713.62891 2.42578,0 0,12.37109 L 147,726 Z m 0,0"
         id="path94" />
    </clipPath>
    <clipPath
       id="clip13">
      <path
         inkscape:connector-curvature="0"
         d="m 132,713.62891 8,0 0,12.37109 -8,0 z m 0,0"
         id="path97" />
    </clipPath>
    <clipPath
       id="clip14">
      <path
         inkscape:connector-curvature="0"
         d="m 108,713.62891 9,0 0,12.37109 -9,0 z m 0,0"
         id="path100" />
    </clipPath>
    <clipPath
       id="clip15">
      <path
         inkscape:connector-curvature="0"
         d="m 97,713.62891 10,0 0,12.37109 -10,0 z m 0,0"
         id="path103" />
    </clipPath>
    <clipPath
       id="clip16">
      <path
         inkscape:connector-curvature="0"
         d="m 74,713.62891 9,0 0,12.37109 -9,0 z m 0,0"
         id="path106" />
    </clipPath>
    <clipPath
       id="clip17">
      <path
         inkscape:connector-curvature="0"
         d="m 64,713.62891 3,0 0,12.37109 -3,0 z m 0,0"
         id="path109" />
    </clipPath>
    <clipPath
       id="clip18">
      <path
         inkscape:connector-curvature="0"
         d="m 56.351562,713.62891 8.648438,0 0,12.37109 -8.648438,0 z m 0,0"
         id="path112" />
    </clipPath>
  </defs>
  <sodipodi:namedview
     id="base"
     pagecolor="#ffffff"
     bordercolor="#666666"
     borderopacity="1.0"
     inkscape:pageopacity="0.0"
     inkscape:pageshadow="2"
     inkscape:zoom="4.8750832"
     inkscape:cx="42.509799"
     inkscape:cy="118.87773"
     inkscape:document-units="px"
     inkscape:current-layer="layer1"
     showgrid="false"
     units="px"
     inkscape:window-width="2560"
     inkscape:window-height="1411"
     inkscape:window-x="1920"
     inkscape:window-y="0"
     inkscape:window-maximized="1" />
  <metadata
     id="metadata4584">
    <rdf:RDF>
      <cc:Work
         rdf:about="">
        <dc:format>image/svg+xml</dc:format>
        <dc:type
           rdf:resource="http://purl.org/dc/dcmitype/StillImage" />
        <dc:title></dc:title>
      </cc:Work>
    </rdf:RDF>
  </metadata>
  <g
     inkscape:label="Layer 1"
     inkscape:groupmode="layer"
     id="layer1"
     transform="translate(0,-1010.3622)">
    <g
       transform="matrix(1.61586,0,0,1.61586,-88.750527,-139.55245)"
       id="g4446">
      <path
         style="fill:#003563;fill-opacity:1;fill-rule:nonzero;stroke:none"
         d="m 143.10937,730.23047 0,5.27734 6.27735,0 0,-0.67969 -4.75,0 0,-1.875 4.55078,0 0,-0.67187 -4.55078,0 0,-1.37891 4.75,0 0,-0.67187 z m 0,0"
         id="path117"
         inkscape:connector-curvature="0" />
      <g
         clip-path="url(#clip1)"
         id="g119"
         style="clip-rule:nonzero">
        <path
           style="fill:#003563;fill-opacity:1;fill-rule:nonzero;stroke:none"
           d="m 135.22656,733.19531 0.9336,0 3.46093,2.3125 1.9336,0 -3.57813,-2.34765 c 1.59375,-0.0977 2.42188,-0.51172 2.42188,-1.47657 0,-0.5625 -0.44532,-0.99218 -0.98047,-1.16015 -0.66797,-0.20703 -1.53125,-0.29688 -2.66797,-0.29688 l -2.98828,0 0,5.28125 1.46484,0 z m 0.0117,-0.66406 0,-1.63281 1.25781,0 c 1.53516,0 2.20313,0.11328 2.20313,0.82031 0,0.69141 -0.69531,0.8125 -2.20313,0.8125 z m 0,0"
           id="path121"
           inkscape:connector-curvature="0" />
      </g>
      <g
         clip-path="url(#clip2)"
         id="g123"
         style="clip-rule:nonzero">
        <path
           style="fill:#003563;fill-opacity:1;fill-rule:nonzero;stroke:none"
           d="m 83.214844,735.50781 1.742187,0 -5.105469,-5.48437 -5.109374,5.48437 1.726562,0 1.226562,-1.35937 4.324219,0 z m -4.921875,-2.03515 1.113281,-1.24219 c 0.117188,-0.14063 0.324219,-0.36328 0.457031,-0.53125 0.148438,0.16797 0.355469,0.39062 0.472657,0.53125 l 1.113281,1.24219 z m 0,0"
           id="path125"
           inkscape:connector-curvature="0" />
      </g>
      <g
         clip-path="url(#clip3)"
         id="g127"
         style="clip-rule:nonzero">
        <path
           style="fill:#003563;fill-opacity:1;fill-rule:nonzero;stroke:none"
           d="m 117.58594,730.77344 c -2.32031,0 -3.89844,0.82812 -3.89844,2.11328 0,1.26953 1.60938,2.08203 3.72266,2.08203 1.2539,0 2.375,-0.25781 3.41015,-0.71094 l 0,0.89453 c -0.93359,0.33203 -2.00781,0.4961 -3.27734,0.4961 -1.625,0 -3.01172,-0.27344 -4.04688,-0.78516 -1.03125,-0.50781 -1.59375,-1.21484 -1.59375,-1.98437 0,-0.77735 0.5625,-1.46875 1.60938,-1.98438 1.04687,-0.51953 2.42187,-0.78906 4,-0.78906 1.26953,0 2.375,0.18359 3.41016,0.54297 l -0.0859,0.82812 c -0.97656,-0.42578 -2.05469,-0.70312 -3.25,-0.70312"
           id="path129"
           inkscape:connector-curvature="0" />
      </g>
      <g
         clip-path="url(#clip4)"
         id="g131"
         style="clip-rule:nonzero">
        <path
           style="fill:#003563;fill-opacity:1;fill-rule:nonzero;stroke:none"
           d="m 56.390625,730.23047 1.492187,0 0,2.05078 5.453126,0 0,-2.05078 1.492187,0 0,5.27734 -1.492187,0 0,-2.55469 -5.453126,0 0,2.55469 -1.492187,0 z m 0,0"
           id="path133"
           inkscape:connector-curvature="0" />
      </g>
      <g
         clip-path="url(#clip5)"
         id="g135"
         style="clip-rule:nonzero">
        <path
           style="fill:#003563;fill-opacity:1;fill-rule:nonzero;stroke:none"
           d="m 96.691406,735.50781 -1.492187,0 0,-4.60937 -2.914063,0 0,-0.66797 7.308594,0 0,0.66797 -2.902344,0 z m 0,0"
           id="path137"
           inkscape:connector-curvature="0" />
      </g>
      <g
         clip-path="url(#clip6)"
         id="g139"
         style="clip-rule:nonzero">
        <path
           style="fill:#003563;fill-opacity:1;fill-rule:nonzero;stroke:none"
           d="m 86.5,730.23047 1.496094,0 0,4.60156 4.351562,0 0,0.67578 -5.847656,0 z m 0,0"
           id="path141"
           inkscape:connector-curvature="0" />
      </g>
      <g
         clip-path="url(#clip7)"
         id="g143"
         style="clip-rule:nonzero">
        <path
           style="fill:#003563;fill-opacity:1;fill-rule:nonzero;stroke:none"
           d="m 130.44531,735.50781 1.74219,0 -5.10937,-5.48437 -5.10547,5.48437 1.72656,0 1.22656,-1.35937 4.32422,0 z m -4.92187,-2.03515 1.11328,-1.24219 c 0.11719,-0.14063 0.32812,-0.36328 0.45703,-0.53125 0.14844,0.16797 0.35547,0.39062 0.47266,0.53125 l 1.11328,1.24219 z m 0,0"
           id="path145"
           inkscape:connector-curvature="0" />
      </g>
      <g
         clip-path="url(#clip8)"
         id="g147"
         style="clip-rule:nonzero">
        <path
           style="fill:#003563;fill-opacity:1;fill-rule:nonzero;stroke:none"
           d="m 67.15625,730.23047 6.277344,0 0,0.66797 -4.746094,0 0,1.38281 4.546875,0 0,0.66797 -4.546875,0 0,1.8789 4.746094,0 0,0.67969 -6.277344,0 z m 0,0"
           id="path149"
           inkscape:connector-curvature="0" />
      </g>
      <g
         clip-path="url(#clip9)"
         id="g151"
         style="clip-rule:nonzero">
        <path
           style="fill:#003563;fill-opacity:1;fill-rule:nonzero;stroke:none"
           d="m 101.57031,730.23047 1.49219,0 0,2.05078 5.45313,0 0,-2.05078 1.49218,0 0,5.27734 -1.49218,0 0,-2.55469 -5.45313,0 0,2.55469 -1.49219,0 z m 0,0"
           id="path153"
           inkscape:connector-curvature="0" />
      </g>
      <g
         clip-path="url(#clip10)"
         id="g155"
         style="clip-rule:nonzero">
        <path
           style="fill:#003563;fill-opacity:1;fill-rule:nonzero;stroke:none"
           d="m 128.77734,727.65234 -0.26172,0.67188 20.90625,0 0,-0.67188 z m 0,0"
           id="path157"
           inkscape:connector-curvature="0" />
      </g>
      <g
         clip-path="url(#clip11)"
         id="g159"
         style="clip-rule:nonzero">
        <path
           style="fill:#003563;fill-opacity:1;fill-rule:nonzero;stroke:none"
           d="m 125.45703,727.65234 -69.105468,0 0,0.67188 68.824218,0 z m 0,0"
           id="path161"
           inkscape:connector-curvature="0" />
      </g>
      <g
         clip-path="url(#clip12)"
         id="g163"
         style="clip-rule:nonzero">
        <path
           style="fill:#003563;fill-opacity:1;fill-rule:nonzero;stroke:none"
           d="m 147.41016,713.73437 1.94531,0 0,11.91016 -1.94531,0 z m 0,0"
           id="path165"
           inkscape:connector-curvature="0" />
      </g>
      <path
         style="fill:#003563;fill-opacity:1;fill-rule:nonzero;stroke:none"
         d="m 146.85156,722.08984 c 0.0312,-0.16015 0.0625,-0.38281 0.0625,-0.69922 0,-2.17187 -1.68359,-4.07812 -4.0625,-4.07812 -2.5,0 -4.29297,1.82031 -4.29297,4.28516 0,2.41796 1.83985,4.15625 4.26172,4.15625 2.26172,0 3.71485,-1.57032 3.92188,-2.76563 l -2.00391,0 c -0.22656,0.44922 -0.64062,1.10547 -1.98828,1.10547 -1.23438,0 -2.07813,-0.96875 -2.21875,-2.00391 z m -6.16406,-1.57031 c 0.125,-0.87891 1.04687,-1.57812 2.12109,-1.57812 1.10547,0 1.90625,0.69921 2.07813,1.57812 z m 0,0"
         id="path167"
         inkscape:connector-curvature="0" />
      <g
         clip-path="url(#clip13)"
         id="g169"
         style="clip-rule:nonzero">
        <path
           style="fill:#003563;fill-opacity:1;fill-rule:nonzero;stroke:none"
           d="m 132.27734,713.73437 1.92578,0 0,6.75391 2.96875,-2.87109 2.29297,0 -3.4375,3.23828 3.73047,4.78906 -2.09765,0 -2.78125,-3.63672 -0.67579,0.71485 0,2.92187 -1.92578,0 z m 0,0"
           id="path171"
           inkscape:connector-curvature="0" />
      </g>
      <path
         style="fill:#003563;fill-opacity:1;fill-rule:nonzero;stroke:none"
         d="m 127.16797,725.16797 -2.92188,-7.5625 1.95313,0 1.94531,5.26172 1.89453,-5.26172 1.99219,0 -4.16016,10.71875 -2.01171,0 z m 0,0"
         id="path173"
         inkscape:connector-curvature="0" />
      <path
         style="fill:#003563;fill-opacity:1;fill-rule:nonzero;stroke:none"
         d="m 123.95313,717.625 -1.77735,0 0,0.69141 c -0.54687,-0.78125 -1.85937,-0.94141 -2.66406,-0.94141 -1.18359,0 -2.24219,0.45703 -3.05859,1.42187 -0.7461,0.85938 -1.01172,1.80469 -1.01172,2.74219 0,1 0.36328,2.07422 1.00781,2.86328 0.69922,0.84375 1.74609,1.37891 3.00391,1.37891 1.01953,0 2.10937,-0.14453 2.72265,-0.98828 l 0,0.85156 1.77735,0 z m -1.83594,3.89844 c 0,1.54687 -0.96485,2.6289 -2.36719,2.61718 -1.31641,0.0117 -2.39453,-1.04296 -2.39453,-2.53125 0,-1.4375 0.99219,-2.55859 2.42187,-2.54296 1.375,-0.0156 2.33985,1.07812 2.33985,2.45703"
         id="path175"
         inkscape:connector-curvature="0" />
      <g
         clip-path="url(#clip14)"
         id="g177"
         style="clip-rule:nonzero">
        <path
           style="fill:#003563;fill-opacity:1;fill-rule:nonzero;stroke:none"
           d="m 110.37109,718.50781 0,-2.85937 1.39454,0 c 0.46093,0 1.10546,-0.0312 1.57031,0.0859 0.6289,0.16407 1.09375,0.64063 1.09375,1.30469 0,0.64063 -0.41797,1.15625 -1.03516,1.35156 -0.50781,0.14844 -1.10937,0.11719 -1.6289,0.11719 z m 0,7.13672 0,-5.16406 1.42188,0 c 1.125,0 2.44922,0.0586 3.39062,-0.66797 0.89063,-0.68359 1.35547,-1.71875 1.35547,-2.80078 0,-1.09766 -0.57031,-2.15235 -1.50781,-2.75781 -0.95703,-0.6211 -1.98828,-0.57813 -3.08203,-0.57813 l -3.6875,0 0,11.96875 z m 0,0"
           id="path179"
           inkscape:connector-curvature="0" />
      </g>
      <g
         clip-path="url(#clip15)"
         id="g181"
         style="clip-rule:nonzero">
        <path
           style="fill:#003563;fill-opacity:1;fill-rule:nonzero;stroke:none"
           d="m 105.66406,725.64453 0.75782,0 -1.46094,-2.01562 c 0.58984,-0.80079 0.90625,-2.01172 0.90625,-3.15625 l -0.5625,0 c -0.0195,1.16406 -0.33594,2.07421 -0.71875,2.64062 l -3.12891,-4.32422 c 1.19141,-0.67187 2.38672,-1.51562 2.38672,-3.0664 0,-1.37891 -1.16016,-2.09375 -2.26562,-2.09375 -1.1211,0 -2.214849,0.84375 -2.214849,2.19921 0,1.12891 0.742189,2.00782 1.281249,2.79297 -1.320311,0.71485 -3.042968,1.82032 -3.042968,3.83203 0,1.99219 1.671876,3.29297 3.683598,3.29297 1.45312,0 2.55859,-0.68359 3.30468,-1.61718 z m -4.51172,-7.27734 c -0.66015,-0.875 -1.21484,-1.66016 -1.21484,-2.59375 0,-0.92969 0.85938,-1.60157 1.69141,-1.60157 0.76172,0 1.6914,0.53516 1.6914,1.60157 0,1.27343 -1.13672,2.03906 -2.16797,2.59375 m 3.10157,5.28515 c -0.10938,0.15235 -1.15625,1.55078 -2.96875,1.55078 -1.468754,0 -3.093754,-1.07812 -3.093754,-2.69531 0,-1.74219 1.441406,-2.7539 2.761724,-3.44531 z m 0,0"
           id="path183"
           inkscape:connector-curvature="0" />
      </g>
      <path
         style="fill:#003563;fill-opacity:1;fill-rule:nonzero;stroke:none"
         d="m 91.773438,717.59375 1.765624,0 0,0.68359 c 0.453126,-0.69531 1.429688,-0.86328 2.003907,-0.86328 0.234375,0 0.566406,0.0156 0.730469,0.0664 l 0,1.55078 c -0.4375,-0.0469 -1.414063,0.0312 -1.953126,0.44531 -0.574218,0.44141 -0.621093,1.05469 -0.605468,1.73438 l 0,4.43359 -1.941406,0 z m 0,0"
         id="path185"
         inkscape:connector-curvature="0" />
      <path
         style="fill:#003563;fill-opacity:1;fill-rule:nonzero;stroke:none"
         d="m 91.121094,722.08984 c 0.03125,-0.16015 0.0625,-0.38281 0.0625,-0.69922 0,-2.17187 -1.683594,-4.07812 -4.0625,-4.07812 -2.5,0 -4.292969,1.82031 -4.292969,4.28516 0,2.41796 1.839844,4.15625 4.261719,4.15625 2.261718,0 3.714844,-1.57032 3.921875,-2.76563 l -2.003907,0 c -0.226562,0.44922 -0.640624,1.10547 -1.988281,1.10547 -1.238281,0 -2.078125,-0.96875 -2.21875,-2.00391 z m -6.164063,-1.57031 c 0.121094,-0.87891 1.046875,-1.57812 2.121094,-1.57812 1.105469,0 1.90625,0.69921 2.078125,1.57812 z m 0,0"
         id="path187"
         inkscape:connector-curvature="0" />
      <g
         clip-path="url(#clip16)"
         id="g189"
         style="clip-rule:nonzero">
        <path
           style="fill:#003563;fill-opacity:1;fill-rule:nonzero;stroke:none"
           d="m 74.84375,713.73437 1.945312,0 0,4.32032 c 0.4375,-0.60938 1.421876,-0.89063 2.179688,-0.89063 1.070312,0 1.984375,0.35547 2.589844,1.02344 0.789062,0.85937 0.761718,1.91406 0.761718,3.00781 l 0,4.44922 -1.90625,0 0,-4.01953 c 0,-1.23047 0.08594,-2.70703 -1.804687,-2.70703 -0.589844,0 -1.207031,0.26172 -1.515625,0.78125 -0.320312,0.57031 -0.304688,1.3789 -0.304688,1.95703 l 0,3.98828 -1.945312,0 z m 0,0"
           id="path191"
           inkscape:connector-curvature="0" />
      </g>
      <path
         style="fill:#003563;fill-opacity:1;fill-rule:nonzero;stroke:none"
         d="m 68.96875,722.91406 c 0.01563,0.98047 0.742188,1.28906 1.859375,1.28906 0.609375,0 1.742187,-0.23046 1.652344,-1.18359 -0.07422,-0.76953 -0.761719,-0.71484 -2.609375,-0.875 -1.253906,-0.10937 -2.417969,-0.85156 -2.417969,-2.29297 0,-2.08594 1.796875,-2.62109 3.320313,-2.62109 1.695312,0 3.152343,0.63281 3.316406,2.42578 l -2.023438,0 c -0.0625,-0.77734 -0.640625,-0.92578 -1.402344,-0.92578 -0.484374,0 -1.324218,0.20703 -1.277343,0.87109 0.05469,0.80469 0.964843,0.84766 2.210937,0.91797 1.558594,0.082 2.753906,0.81641 2.753906,2.48047 0,1.59375 -1.351562,2.79297 -3.539062,2.79297 -1.800781,0 -3.554688,-0.71094 -3.644531,-2.87891 z m 0,0"
         id="path193"
         inkscape:connector-curvature="0" />
      <g
         clip-path="url(#clip17)"
         id="g195"
         style="clip-rule:nonzero">
        <path
           style="fill:#003563;fill-opacity:1;fill-rule:nonzero;stroke:none"
           d="m 64.703125,717.60547 1.941406,0 0,8.03906 -1.941406,0 z m 0,-3.9336 1.941406,0 0,1.98829 -1.941406,0 z m 0,0"
           id="path197"
           inkscape:connector-curvature="0" />
      </g>
      <g
         clip-path="url(#clip18)"
         id="g199"
         style="clip-rule:nonzero">
        <path
           style="fill:#003563;fill-opacity:1;fill-rule:nonzero;stroke:none"
           d="m 56.351562,713.67578 7.945313,0 0,1.98438 -5.710937,0 0,1.94921 4.964843,0 0,1.91797 -4.964843,0 0,6.11719 -2.234376,0 z m 0,0"
           id="path201"
           inkscape:connector-curvature="0" />
      </g>
    </g>
  </g>
</svg>
