<?xml version="1.0" encoding="UTF-8"?>
<svg id="Layer_2" xmlns="http://www.w3.org/2000/svg" xmlns:xlink="http://www.w3.org/1999/xlink" viewBox="0 0 1316.73 535.28">
  <defs>
    <style>
      .cls-1 {
        fill: #e8423a;
      }

      .cls-2 {
        fill: url(#linear-gradient-2);
      }

      .cls-3 {
        fill: #e63e25;
      }

      .cls-4 {
        fill: #ffd109;
      }

      .cls-5 {
        fill: #f9a11b;
      }

      .cls-6 {
        fill: #dd2826;
      }

      .cls-7 {
        fill: #f47621;
      }

      .cls-8 {
        fill: #f99e1c;
      }

      .cls-9 {
        fill: #f6871f;
      }

      .cls-10 {
        fill: none;
      }

      .cls-11 {
        fill: url(#linear-gradient-4);
      }

      .cls-12 {
        fill: url(#linear-gradient-3);
      }

      .cls-13 {
        fill: #faa620;
      }

      .cls-14 {
        fill: url(#linear-gradient-5);
      }

      .cls-15 {
        fill: #f26724;
        font-family: CreteRound-Regular, 'Crete Round';
        font-size: 90.73px;
        opacity: .98;
      }

      .cls-16 {
        fill: #fdb822;
      }

      .cls-17 {
        fill: #212121;
      }

      .cls-18 {
        fill: #ee2d24;
      }

      .cls-19 {
        fill: #d4ab2a;
      }

      .cls-20 {
        fill: #dd1f26;
      }

      .cls-21 {
        fill: #ea272a;
      }

      .cls-22 {
        fill: url(#linear-gradient-7);
      }

      .cls-23 {
        fill: #ffcc09;
      }

      .cls-24 {
        fill: url(#linear-gradient-6);
      }

      .cls-25 {
        fill: #f78c1e;
      }

      .cls-26 {
        fill: #f59194;
      }

      .cls-27 {
        fill: url(#linear-gradient);
      }
    </style>
    <linearGradient id="linear-gradient" x1="990.38" y1="257.57" x2="1040.65" y2="230.52" gradientTransform="translate(0 433.28) scale(1 -1)" gradientUnits="userSpaceOnUse">
      <stop offset=".06" stop-color="#fcb316"/>
      <stop offset=".53" stop-color="#fdcd09"/>
      <stop offset="1" stop-color="#ffe300"/>
    </linearGradient>
    <linearGradient id="linear-gradient-2" x1="977.03" y1="293.9" x2="1024.66" y2="291.47" gradientTransform="translate(0 433.28) scale(1 -1)" gradientUnits="userSpaceOnUse">
      <stop offset=".06" stop-color="#fcb316"/>
      <stop offset="1" stop-color="#ffe300"/>
    </linearGradient>
    <linearGradient id="linear-gradient-3" x1="1018.12" y1="314.22" x2="1050.2" y2="263.19" gradientTransform="translate(0 433.28) scale(1 -1)" gradientUnits="userSpaceOnUse">
      <stop offset=".06" stop-color="#f49339"/>
      <stop offset="1" stop-color="#fcd410"/>
    </linearGradient>
    <linearGradient id="linear-gradient-4" x1="1037.81" y1="312.85" x2="1044.97" y2="298.07" gradientTransform="translate(0 433.28) scale(1 -1)" gradientUnits="userSpaceOnUse">
      <stop offset="0" stop-color="#f78e1e"/>
      <stop offset="1" stop-color="#f89a1c"/>
    </linearGradient>
    <linearGradient id="linear-gradient-5" x1="1196.9" y1="341.42" x2="1167.82" y2="335.56" gradientTransform="translate(0 433.28) scale(1 -1)" gradientUnits="userSpaceOnUse">
      <stop offset="0" stop-color="#f36e21"/>
      <stop offset="1" stop-color="#f99d1c"/>
    </linearGradient>
    <linearGradient id="linear-gradient-6" x1="1189.11" y1="350.86" x2="1171.5" y2="345.11" gradientTransform="translate(0 433.28) scale(1 -1)" gradientUnits="userSpaceOnUse">
      <stop offset="0" stop-color="#ee2c24"/>
      <stop offset="1" stop-color="#ef3f23"/>
    </linearGradient>
    <linearGradient id="linear-gradient-7" x1="1181" y1="293.02" x2="1173.69" y2="339.2" gradientTransform="translate(0 433.28) scale(1 -1)" gradientUnits="userSpaceOnUse">
      <stop offset="0" stop-color="#ee2724"/>
      <stop offset="1" stop-color="#ee2d24"/>
    </linearGradient>
  </defs>
  <g id="Layer_1-2" data-name="Layer_1">
    <g>
      <polygon class="cls-19" points="1042.04 96.09 1003.02 73.22 925.36 103.29 941.95 183.97 980.78 207.47 1058.2 176.72 1042.04 96.09"/>
      <polygon class="cls-7" points="1136.44 0 1034.92 14.8 1026.98 119.21 1084.19 166.8 1185.7 152 1192.85 47.55 1136.44 0"/>
      <polygon class="cls-20" points="1288.43 61 1241.21 40.13 1156.99 83.82 1186.04 173.22 1232.93 195.01 1316.73 150.3 1288.43 61"/>
      <g>
        <polygon class="cls-27" points="1018.87 154.11 973.68 171.65 980.79 207.47 1058.21 176.72 1018.87 154.11"/>
        <polygon class="cls-2" points="964.67 126.26 973.68 171.65 1018.87 154.11 1009.95 108.6 964.67 126.26"/>
        <polygon class="cls-10" points="1003.02 73.22 925.36 103.29 964.67 126.26 1009.95 108.6 1003.02 73.22"/>
        <polygon class="cls-12" points="1028.33 101.44 1009.95 108.6 1018.87 154.11 1058.2 176.72 1050.62 138.87 1026.98 119.21 1028.33 101.44"/>
        <polygon class="cls-11" points="1026.98 119.21 1050.62 138.87 1046.12 116.45 1026.98 119.21"/>
        <polygon class="cls-23" points="1003.02 73.22 1009.95 108.6 1028.33 101.44 1029.31 88.62 1003.02 73.22"/>
        <polygon class="cls-5" points="1046.12 116.45 1042.04 96.09 1028.33 101.44 1026.98 119.21 1046.12 116.45"/>
        <polygon class="cls-4" points="1029.31 88.62 1028.33 101.44 1042.04 96.09 1029.31 88.62"/>
      </g>
      <g>
        <polygon class="cls-16" points="1132.56 56.34 1091.36 62.35 1088.06 110.4 1129.25 104.45 1136.44 0 1132.56 56.34"/>
        <polygon class="cls-25" points="1034.92 14.8 1029.31 88.62 1042.04 96.09 1046.12 116.45 1088.06 110.4 1091.36 62.35 1034.92 14.8"/>
        <polygon class="cls-13" points="1132.56 56.34 1136.44 0 1034.92 14.8 1091.36 62.35 1132.56 56.34"/>
        <polygon class="cls-9" points="1136.44 0 1132.56 56.34 1192.85 47.55 1192.85 47.55 1136.44 0"/>
        <polygon class="cls-8" points="1129.25 104.45 1088.06 110.4 1084.19 166.8 1179.45 152.91 1176.68 144.41 1129.25 104.45"/>
        <polygon class="cls-14" points="1156.99 83.82 1191.59 65.87 1192.85 47.55 1132.56 56.34 1129.25 104.45 1176.68 144.41 1156.99 83.82"/>
      </g>
      <g>
        <polygon class="cls-1" points="1253.44 79.19 1288.43 61 1241.21 40.13 1253.44 79.19"/>
        <polygon class="cls-26" points="1269.4 129.5 1316.73 150.3 1288.43 61 1253.44 79.19 1269.4 129.5"/>
        <polygon class="cls-21" points="1220.38 154.99 1232.93 195.01 1316.73 150.3 1269.4 129.5 1220.38 154.99"/>
        <polygon class="cls-21" points="1186.04 173.22 1232.93 195.01 1220.36 155 1186.04 173.22"/>
        <polygon class="cls-3" points="1253.44 79.19 1204.54 104.72 1220.38 154.99 1269.4 129.5 1253.44 79.19"/>
        <polygon class="cls-6" points="1204.54 104.72 1253.44 79.19 1241.21 40.13 1191.59 65.87 1189.39 98.06 1204.54 104.72"/>
        <polygon class="cls-24" points="1189.39 98.06 1191.59 65.87 1156.99 83.82 1189.39 98.06"/>
        <polygon class="cls-18" points="1176.68 144.41 1179.45 152.91 1185.7 152 1176.68 144.41"/>
        <polygon class="cls-22" points="1176.68 144.41 1185.7 152 1189.39 98.06 1156.99 83.82 1176.68 144.41"/>
      </g>
    </g>
    <g>
      <path class="cls-17" d="M69.6,289.97c13.31,0,28.27,5.01,40.01,13.4l8.58,6.13,14.81-22.23-8.21-5.69c-15.9-11.1-36.53-17.72-55.19-17.72-34.5,0-59.55,19.68-59.55,46.79,0,31.61,31.63,40.6,57.04,47.82l1.36.39c26.61,7.55,37.73,12.69,37.73,24.96s-14.55,21.25-34.59,21.25c-16.59,0-33.84-6.47-47.32-17.75l-8.19-6.83L0,401.5l7.46,6.29c17.43,14.64,41.3,23.39,63.85,23.39,35.65,0,61.53-20.28,61.53-48.22,0-33.86-33.8-43.08-58.52-49.82-28.47-7.86-37.6-13.53-37.6-23.34,0-11.49,13.83-19.83,32.89-19.83h0Z"/>
      <path class="cls-17" d="M212.13,264.16c-18.38,0-35.07,4.17-54.13,13.51l-8.81,4.34,10.52,23.67,9.51-4.53c15.83-7.64,28.58-10.9,42.64-10.9,28.93,0,42.76,12.22,43.36,38.42-13.65-3.41-28.68-5.27-43.08-5.27-44.62,0-73.44,21.93-73.44,55.87,0,31.06,26.01,52.74,63.24,52.74,20.56,0,39.32-6.13,53.3-17.13v13.74h26.38v-98.41c0-20.01-5.84-36.43-16.88-47.48-12.32-12.33-30.02-18.59-52.59-18.59l-.02.02ZM202.21,405.92c-6.16,0-36.87-1.33-36.87-27.5,0-27.52,39.22-28.92,47.08-28.92,15.91,0,29.63,1.95,42.81,6.13v10.88c0,18.95-20.27,39.4-53.01,39.4h-.01Z"/>
      <path class="cls-17" d="M362.41,263.01c-21.71,0-36.91,8.82-46.77,17.82v-14.42h-26.39v162.22h26.39v-88.78c0-28.46,20.3-50.75,46.22-50.75,28.33,0,43.93,17.62,43.93,49.61v89.91h26.39v-90.48c0-45.65-27.39-75.14-69.77-75.14h0Z"/>
      <path class="cls-17" d="M574.38,284.66c-14.33-13.91-33.79-21.65-55.29-21.65-46.23,0-81.1,36.44-81.1,84.78s34.87,84.23,81.1,84.23c21.5,0,40.96-7.74,55.29-21.65v18.26h26.39v-227.45h-26.39v83.48h0ZM519.38,405.92c-31.72,0-54.74-24.8-54.74-58.97s23.02-57.85,54.74-57.85,55.29,25.78,55.29,58.68-24.29,58.13-55.29,58.13h0Z"/>
      <path class="cls-17" d="M678.5,200.36c-14.09,0-25.59,4.34-34.16,12.9-9.56,9.58-14.61,24.44-14.61,42.96v10.2h-22.39v25.82h22.39v136.4h26.38v-136.4h51.3v-25.82h-51.3v-9.06c0-27.46,12.78-30.64,22.4-30.64,5.71,0,11.5,1.12,15.48,3l14.57,6.89v-28.71l-6.03-2.69c-7.58-3.4-14.77-4.85-24.03-4.85h0Z"/>
      <rect class="cls-17" x="714.2" y="266.37" width="26.4" height="162.27"/>
      <path class="cls-17" d="M824.21,263.01c-44.61,0-78.26,36.33-78.26,84.51s34.11,84.5,81.1,84.5c26.37,0,50.4-12.87,65.94-35.29l5.8-8.35-21.42-15.07-5.9,8.25c-8.41,11.78-24.42,24.36-44.14,24.36-27.74,0-48.58-18.43-53.42-46.47h125.73v-11.36c0-42.28-25.91-85.08-75.44-85.08h.01ZM823.93,289.11c20.33,0,42.21,13.82,47.63,44.51h-97.52c4.91-26.87,24.35-44.51,49.89-44.51Z"/>
      <rect class="cls-17" x="905.51" y="201.19" width="26.38" height="227.45"/>
      <path class="cls-17" d="M1074.3,201.19v83.48c-14.33-13.91-33.78-21.65-55.29-21.65-46.24,0-81.11,36.44-81.11,84.78s34.87,84.23,81.11,84.23c21.5,0,40.95-7.74,55.29-21.65v18.26h26.39v-227.45h-26.39ZM1019.32,405.92c-31.72,0-54.73-24.8-54.73-58.97s23.02-57.85,54.73-57.85,55.28,25.78,55.28,58.68-24.28,58.13-55.28,58.13h0Z"/>
      <rect class="cls-17" x="714.21" y="234.07" width="26.38" height="26.38"/>
    </g>
    <text class="cls-15" transform="translate(626 510.14) scale(1.01 1)"><tspan x="0" y="0">Get an edge</tspan></text>
  </g>
</svg>